<?xml version="1.0" encoding="UTF-8" standalone="no"?>
<!-- Created with Inkscape (http://www.inkscape.org/) -->

<svg
   xmlns:dc="http://purl.org/dc/elements/1.1/"
   xmlns:cc="http://creativecommons.org/ns#"
   xmlns:rdf="http://www.w3.org/1999/02/22-rdf-syntax-ns#"
   xmlns:svg="http://www.w3.org/2000/svg"
   xmlns="http://www.w3.org/2000/svg"
   xmlns:sodipodi="http://sodipodi.sourceforge.net/DTD/sodipodi-0.dtd"
   xmlns:inkscape="http://www.inkscape.org/namespaces/inkscape"
   width="301.6875"
   height="223.84375"
   id="svg2"
   version="1.1"
   inkscape:version="0.48.4 r9939"
   sodipodi:docname="cv-grid.svg"
   inkscape:export-filename="/home/leo/pub/paper-moho-inversion-tesseroids/figures/drawings/cv-grid-inversion.png"
   inkscape:export-xdpi="300.19702"
   inkscape:export-ydpi="300.19702">
  <defs
     id="defs4">
    <inkscape:path-effect
       effect="skeletal"
       id="path-effect3058"
       is_visible="true"
       pattern="M 7,3.500003 C 7,5.432996 5.433,7 3.5,7 1.567,7 0,5.432996 0,3.500003 0,1.567004 1.567,0 3.5,0 5.433,0 7,1.567004 7,3.500003 z"
       copytype="repeated"
       prop_scale="1"
       scale_y_rel="false"
       spacing="4.6"
       normal_offset="0"
       tang_offset="0"
       prop_units="true"
       vertical_pattern="false"
       fuse_tolerance="0" />
    <inkscape:path-effect
       effect="skeletal"
       id="path-effect3058-4"
       is_visible="true"
       pattern="m 7.000005,32.063434 c 0,1.932993 -1.567,3.499997 -3.5,3.499997 -1.933,0 -3.5,-1.567004 -3.5,-3.499997 0,-1.932999 1.567,-3.500003 3.5,-3.500003 1.933,0 3.5,1.567004 3.5,3.500003 z"
       copytype="repeated"
       prop_scale="1"
       scale_y_rel="false"
       spacing="4.6"
       normal_offset="0"
       tang_offset="0"
       prop_units="true"
       vertical_pattern="false"
       fuse_tolerance="0" />
    <inkscape:path-effect
       effect="skeletal"
       id="path-effect3058-1"
       is_visible="true"
       pattern="m 7.000006,60.626881 c 0,1.932993 -1.567,3.499997 -3.5,3.499997 -1.933,0 -3.5,-1.567004 -3.5,-3.499997 0,-1.932999 1.567,-3.500003 3.5,-3.500003 1.933,0 3.5,1.567004 3.5,3.500003 z"
       copytype="repeated"
       prop_scale="1"
       scale_y_rel="false"
       spacing="4.6"
       normal_offset="0"
       tang_offset="0"
       prop_units="true"
       vertical_pattern="false"
       fuse_tolerance="0" />
    <inkscape:path-effect
       effect="skeletal"
       id="path-effect3058-0"
       is_visible="true"
       pattern="m 7.000009,89.190297 c 0,1.932994 -1.567,3.499994 -3.5,3.499994 -1.933,0 -3.5,-1.567 -3.5,-3.499994 0,-1.932999 1.567,-3.500003 3.5,-3.500003 1.933,0 3.5,1.567004 3.5,3.500003 z"
       copytype="repeated"
       prop_scale="1"
       scale_y_rel="false"
       spacing="4.6"
       normal_offset="0"
       tang_offset="0"
       prop_units="true"
       vertical_pattern="false"
       fuse_tolerance="0" />
    <inkscape:path-effect
       effect="skeletal"
       id="path-effect3058-7"
       is_visible="true"
       pattern="m 7.0000072,117.75371 c 0,1.93299 -1.567,3.5 -3.5,3.5 -1.9329997,0 -3.4999996900001,-1.56701 -3.4999996900001,-3.5 0,-1.933 1.5669999900001,-3.5 3.4999996900001,-3.5 1.933,0 3.5,1.567 3.5,3.5 z"
       copytype="repeated"
       prop_scale="1"
       scale_y_rel="false"
       spacing="4.6"
       normal_offset="0"
       tang_offset="0"
       prop_units="true"
       vertical_pattern="false"
       fuse_tolerance="0" />
  </defs>
  <sodipodi:namedview
     id="base"
     pagecolor="#ffffff"
     bordercolor="#666666"
     borderopacity="1.0"
     inkscape:pageopacity="0.0"
     inkscape:pageshadow="2"
     inkscape:zoom="0.98994949"
     inkscape:cx="98.759434"
     inkscape:cy="139.60679"
     inkscape:document-units="px"
     inkscape:current-layer="layer3"
     showgrid="false"
     showguides="true"
     inkscape:guide-bbox="true"
     fit-margin-top="0"
     fit-margin-left="0"
     fit-margin-right="0"
     fit-margin-bottom="0"
     inkscape:window-width="1366"
     inkscape:window-height="719"
     inkscape:window-x="0"
     inkscape:window-y="25"
     inkscape:window-maximized="1" />
  <metadata
     id="metadata7">
    <rdf:RDF>
      <cc:Work
         rdf:about="">
        <dc:format>image/svg+xml</dc:format>
        <dc:type
           rdf:resource="http://purl.org/dc/dcmitype/StillImage" />
        <dc:title></dc:title>
      </cc:Work>
    </rdf:RDF>
  </metadata>
  <g
     inkscape:groupmode="layer"
     id="layer4"
     inkscape:label="All black"
     style="display:inline"
     transform="translate(0.99605,0.994645)">
    <path
       style="fill:none;stroke:#1a1a1a;stroke-width:2.5;stroke-miterlimit:4;stroke-dasharray:none;display:inline"
       d="m 12.80769,215.45045 c 0,3.53675 -2.86709,6.40385 -6.40384,6.40385 C 2.86709,221.8543 0,218.9872 0,215.45045 c 0,-3.53675 2.86709,-6.40384 6.40385,-6.40384 3.53675,0 6.40384,2.86709 6.40384,6.40384 z"
       id="path3168"
       inkscape:connector-curvature="0" />
    <path
       style="fill:none;stroke:#1a1a1a;stroke-width:2.5;stroke-miterlimit:4;stroke-dasharray:none;display:inline"
       d="m 84.53077,215.45045 c 0,3.53675 -2.86709,6.40385 -6.40385,6.40385 -3.53675,0 -6.40384,-2.8671 -6.40384,-6.40385 0,-3.53675 2.86709,-6.40384 6.40384,-6.40384 3.53676,0 6.40385,2.86709 6.40385,6.40384 z"
       id="path3166"
       inkscape:connector-curvature="0" />
    <path
       style="fill:none;stroke:#1a1a1a;stroke-width:2.5;stroke-miterlimit:4;stroke-dasharray:none;display:inline"
       d="m 156.25385,215.45045 c 0,3.53675 -2.8671,6.40385 -6.40385,6.40385 -3.53675,0 -6.40385,-2.8671 -6.40385,-6.40385 0,-3.53675 2.8671,-6.40384 6.40385,-6.40384 3.53675,0 6.40385,2.86709 6.40385,6.40384 z"
       id="path3164"
       inkscape:connector-curvature="0" />
    <path
       style="fill:none;stroke:#1a1a1a;stroke-width:2.5;stroke-miterlimit:4;stroke-dasharray:none;display:inline"
       d="m 227.9769,215.45045 c 0,3.53675 -2.86709,6.40385 -6.40384,6.40385 -3.53675,0 -6.40385,-2.8671 -6.40385,-6.40385 0,-3.53675 2.8671,-6.40384 6.40385,-6.40384 3.53675,0 6.40384,2.86709 6.40384,6.40384 z"
       id="path3162"
       inkscape:connector-curvature="0" />
    <path
       style="fill:none;stroke:#1a1a1a;stroke-width:2.5;stroke-miterlimit:4;stroke-dasharray:none;display:inline"
       d="m 299.69998,215.45045 c 0,3.53675 -2.86709,6.40385 -6.40384,6.40385 -3.53676,0 -6.40385,-2.8671 -6.40385,-6.40385 0,-3.53675 2.86709,-6.40384 6.40385,-6.40384 3.53675,0 6.40384,2.86709 6.40384,6.40384 z"
       id="path3160"
       inkscape:connector-curvature="0" />
    <path
       style="fill:none;stroke:#1a1a1a;stroke-width:2.5;stroke-miterlimit:4;stroke-dasharray:none;display:inline"
       d="m 12.80769,163.18883 c 0,3.53676 -2.86709,6.40386 -6.40384,6.40386 -3.53676,0 -6.40385,-2.8671 -6.40385,-6.40386 0,-3.53673 2.86709,-6.40385 6.40385,-6.40385 3.53675,0 6.40384,2.86712 6.40384,6.40385 z"
       id="path3158"
       inkscape:connector-curvature="0" />
    <path
       style="fill:none;stroke:#1a1a1a;stroke-width:2.5;stroke-miterlimit:4;stroke-dasharray:none;display:inline"
       d="m 84.53077,163.18883 c 0,3.53676 -2.86709,6.40386 -6.40385,6.40386 -3.53675,0 -6.40384,-2.8671 -6.40384,-6.40386 0,-3.53673 2.86709,-6.40385 6.40384,-6.40385 3.53676,0 6.40385,2.86712 6.40385,6.40385 z"
       id="path3156"
       inkscape:connector-curvature="0" />
    <path
       style="fill:none;stroke:#1a1a1a;stroke-width:2.5;stroke-miterlimit:4;stroke-dasharray:none;display:inline"
       d="m 156.25385,163.18883 c 0,3.53676 -2.8671,6.40386 -6.40385,6.40386 -3.53675,0 -6.40385,-2.8671 -6.40385,-6.40386 0,-3.53673 2.8671,-6.40385 6.40385,-6.40385 3.53675,0 6.40385,2.86712 6.40385,6.40385 z"
       id="path3154"
       inkscape:connector-curvature="0" />
    <path
       style="fill:none;stroke:#1a1a1a;stroke-width:2.5;stroke-miterlimit:4;stroke-dasharray:none;display:inline"
       d="m 227.97692,163.18883 c 0,3.53676 -2.86709,6.40386 -6.40384,6.40386 -3.53676,0 -6.40385,-2.8671 -6.40385,-6.40386 0,-3.53673 2.86709,-6.40385 6.40385,-6.40385 3.53675,0 6.40384,2.86712 6.40384,6.40385 z"
       id="path3152"
       inkscape:connector-curvature="0" />
    <path
       style="fill:none;stroke:#1a1a1a;stroke-width:2.5;stroke-miterlimit:4;stroke-dasharray:none;display:inline"
       d="m 299.7,163.18883 c 0,3.53676 -2.86709,6.40386 -6.40385,6.40386 -3.53675,0 -6.40384,-2.8671 -6.40384,-6.40386 0,-3.53673 2.86709,-6.40385 6.40384,-6.40385 3.53676,0 6.40385,2.86712 6.40385,6.40385 z"
       id="path3150"
       inkscape:connector-curvature="0" />
    <path
       style="fill:none;stroke:#1a1a1a;stroke-width:2.5;stroke-miterlimit:4;stroke-dasharray:none;display:inline"
       d="m 12.80769,110.92721 c 0,3.53675 -2.86709,6.40385 -6.40384,6.40385 -3.53676,0 -6.40385,-2.8671 -6.40385,-6.40385 0,-3.53675 2.86709,-6.40384 6.40385,-6.40384 3.53675,0 6.40384,2.86709 6.40384,6.40384 z"
       id="path3148"
       inkscape:connector-curvature="0" />
    <path
       style="fill:none;stroke:#1a1a1a;stroke-width:2.5;stroke-miterlimit:4;stroke-dasharray:none;display:inline"
       d="m 84.53077,110.92721 c 0,3.53675 -2.86709,6.40385 -6.40385,6.40385 -3.53675,0 -6.40384,-2.8671 -6.40384,-6.40385 0,-3.53675 2.86709,-6.40384 6.40384,-6.40384 3.53676,0 6.40385,2.86709 6.40385,6.40384 z"
       id="path3146"
       inkscape:connector-curvature="0" />
    <path
       style="fill:none;stroke:#1a1a1a;stroke-width:2.5;stroke-miterlimit:4;stroke-dasharray:none;display:inline"
       d="m 156.25385,109.07897 c 0,3.53675 -2.8671,6.40385 -6.40385,6.40385 -3.53675,0 -6.40385,-2.8671 -6.40385,-6.40385 0,-3.53675 2.8671,-6.40385 6.40385,-6.40385 3.53675,0 6.40385,2.8671 6.40385,6.40385 z"
       id="path3144"
       inkscape:connector-curvature="0" />
    <path
       style="fill:none;stroke:#1a1a1a;stroke-width:2.5;stroke-miterlimit:4;stroke-dasharray:none;display:inline"
       d="m 227.97692,110.92721 c 0,3.53675 -2.86709,6.40385 -6.40384,6.40385 -3.53676,0 -6.40385,-2.8671 -6.40385,-6.40385 0,-3.53675 2.86709,-6.40384 6.40385,-6.40384 3.53675,0 6.40384,2.86709 6.40384,6.40384 z"
       id="path3142"
       inkscape:connector-curvature="0" />
    <path
       style="fill:none;stroke:#1a1a1a;stroke-width:2.5;stroke-miterlimit:4;stroke-dasharray:none;display:inline"
       d="m 299.7,110.92721 c 0,3.53675 -2.86709,6.40385 -6.40385,6.40385 -3.53675,0 -6.40384,-2.8671 -6.40384,-6.40385 0,-3.53675 2.86709,-6.40384 6.40384,-6.40384 3.53676,0 6.40385,2.86709 6.40385,6.40384 z"
       id="path3140"
       inkscape:connector-curvature="0" />
    <path
       style="fill:none;stroke:#1a1a1a;stroke-width:2.5;stroke-miterlimit:4;stroke-dasharray:none;display:inline"
       d="m 12.80769,58.665513 c 0,3.536753 -2.86709,6.403846 -6.40384,6.403846 C 2.86709,65.069359 0,62.202266 0,58.665513 c 0,-3.536752 2.86709,-6.403846 6.40385,-6.403846 3.53675,0 6.40384,2.867094 6.40384,6.403846 z"
       id="path3138"
       inkscape:connector-curvature="0" />
    <path
       style="fill:none;stroke:#1a1a1a;stroke-width:2.5;stroke-miterlimit:4;stroke-dasharray:none;display:inline"
       d="m 84.53077,58.665513 c 0,3.536753 -2.86709,6.403846 -6.40385,6.403846 -3.53675,0 -6.40384,-2.867093 -6.40384,-6.403846 0,-3.536752 2.86709,-6.403846 6.40384,-6.403846 3.53676,0 6.40385,2.867094 6.40385,6.403846 z"
       id="path3136"
       inkscape:connector-curvature="0" />
    <path
       style="fill:none;stroke:#1a1a1a;stroke-width:2.5;stroke-miterlimit:4;stroke-dasharray:none;display:inline"
       d="m 156.25385,58.665513 c 0,3.536753 -2.8671,6.403846 -6.40385,6.403846 -3.53675,0 -6.40385,-2.867093 -6.40385,-6.403846 0,-3.536752 2.8671,-6.403846 6.40385,-6.403846 3.53675,0 6.40385,2.867094 6.40385,6.403846 z"
       id="path3134"
       inkscape:connector-curvature="0" />
    <path
       style="fill:none;stroke:#1a1a1a;stroke-width:2.5;stroke-miterlimit:4;stroke-dasharray:none;display:inline"
       d="m 227.97692,58.665513 c 0,3.536753 -2.86709,6.403846 -6.40384,6.403846 -3.53676,0 -6.40385,-2.867093 -6.40385,-6.403846 0,-3.536752 2.86709,-6.403846 6.40385,-6.403846 3.53675,0 6.40384,2.867094 6.40384,6.403846 z"
       id="path3132"
       inkscape:connector-curvature="0" />
    <path
       style="fill:none;stroke:#1a1a1a;stroke-width:2.5;stroke-miterlimit:4;stroke-dasharray:none;display:inline"
       d="m 299.7,58.665513 c 0,3.536753 -2.86709,6.403846 -6.40385,6.403846 -3.53675,0 -6.40384,-2.867093 -6.40384,-6.403846 0,-3.536752 2.86709,-6.403846 6.40384,-6.403846 3.53676,0 6.40385,2.867094 6.40385,6.403846 z"
       id="path3130"
       inkscape:connector-curvature="0" />
    <path
       style="fill:none;stroke:#1a1a1a;stroke-width:2.5;stroke-miterlimit:4;stroke-dasharray:none;display:inline"
       d="m 12.80769,6.4038511 c 0,3.53674 -2.86709,6.4038409 -6.40384,6.4038409 C 2.86709,12.807692 0,9.9405911 0,6.4038511 0,2.8671001 2.86709,-9.1796875e-7 6.40385,-9.1796875e-7 9.9406,-9.1796875e-7 12.80769,2.8671001 12.80769,6.4038511 z"
       id="path3128"
       inkscape:connector-curvature="0" />
    <path
       style="fill:none;stroke:#1a1a1a;stroke-width:2.5;stroke-miterlimit:4;stroke-dasharray:none;display:inline"
       d="m 84.53077,6.4038511 c 0,3.53674 -2.86709,6.4038409 -6.40385,6.4038409 -3.53675,0 -6.40384,-2.8671009 -6.40384,-6.4038409 0,-3.536751 2.86709,-6.40385201796875 6.40384,-6.40385201796875 3.53676,0 6.40385,2.86710101796875 6.40385,6.40385201796875 z"
       id="path3126"
       inkscape:connector-curvature="0" />
    <path
       style="fill:none;stroke:#1a1a1a;stroke-width:2.5;stroke-miterlimit:4;stroke-dasharray:none;display:inline"
       d="m 156.25385,6.4038511 c 0,3.53674 -2.8671,6.4038409 -6.40385,6.4038409 -3.53675,0 -6.40385,-2.8671009 -6.40385,-6.4038409 0,-3.536751 2.8671,-6.40385201796875 6.40385,-6.40385201796875 3.53675,0 6.40385,2.86710101796875 6.40385,6.40385201796875 z"
       id="path3124"
       inkscape:connector-curvature="0" />
    <path
       style="fill:none;stroke:#1a1a1a;stroke-width:2.5;stroke-miterlimit:4;stroke-dasharray:none;display:inline"
       d="m 227.97692,6.4038511 c 0,3.53674 -2.86709,6.4038409 -6.40384,6.4038409 -3.53676,0 -6.40385,-2.8671009 -6.40385,-6.4038409 0,-3.536751 2.86709,-6.40385201796875 6.40385,-6.40385201796875 3.53675,0 6.40384,2.86710101796875 6.40384,6.40385201796875 z"
       id="path3122"
       inkscape:connector-curvature="0" />
    <path
       style="fill:none;stroke:#1a1a1a;stroke-width:2.5;stroke-miterlimit:4;stroke-dasharray:none;display:inline"
       d="m 299.7,6.4038511 c 0,3.53674 -2.86709,6.4038409 -6.40385,6.4038409 -3.53675,0 -6.40384,-2.8671009 -6.40384,-6.4038409 0,-3.536751 2.86709,-6.40385201796875 6.40384,-6.40385201796875 C 296.83291,-9.1796875e-7 299.7,2.8671001 299.7,6.4038511 z"
       id="path2985-4"
       inkscape:connector-curvature="0" />
  </g>
  <g
     inkscape:label="Inversion"
     inkscape:groupmode="layer"
     id="layer1"
     transform="translate(-160.5625,28.6875)"
     style="display:inline">
    <path
       style="fill:#ff0000;stroke:#1a1a1a;stroke-width:2;stroke-miterlimit:4;stroke-dasharray:none;display:inline"
       d="m 174.36624,187.75759 c 0,3.53675 -2.86709,6.40385 -6.40384,6.40385 -3.53676,0 -6.40385,-2.8671 -6.40385,-6.40385 0,-3.53675 2.86709,-6.40384 6.40385,-6.40384 3.53675,0 6.40384,2.86709 6.40384,6.40384 z"
       id="path3168-1"
       inkscape:connector-curvature="0"
       inkscape:export-filename="/home/leo/pub/paper-moho-inversion-tesseroids/figures/drawings/cv-grid-both.png"
       inkscape:export-xdpi="300.19702"
       inkscape:export-ydpi="300.19702" />
    <path
       style="fill:#ff0000;stroke:#1a1a1a;stroke-width:2;stroke-miterlimit:4;stroke-dasharray:none;display:inline"
       d="m 317.8124,187.75759 c 0,3.53675 -2.8671,6.40385 -6.40385,6.40385 -3.53675,0 -6.40385,-2.8671 -6.40385,-6.40385 0,-3.53675 2.8671,-6.40384 6.40385,-6.40384 3.53675,0 6.40385,2.86709 6.40385,6.40384 z"
       id="path3164-6"
       inkscape:connector-curvature="0"
       inkscape:export-filename="/home/leo/pub/paper-moho-inversion-tesseroids/figures/drawings/cv-grid-both.png"
       inkscape:export-xdpi="300.19702"
       inkscape:export-ydpi="300.19702" />
    <path
       style="fill:#ff0000;stroke:#1a1a1a;stroke-width:2;stroke-miterlimit:4;stroke-dasharray:none;display:inline"
       d="m 461.25853,187.75759 c 0,3.53675 -2.86709,6.40385 -6.40384,6.40385 -3.53676,0 -6.40385,-2.8671 -6.40385,-6.40385 0,-3.53675 2.86709,-6.40384 6.40385,-6.40384 3.53675,0 6.40384,2.86709 6.40384,6.40384 z"
       id="path3160-0"
       inkscape:connector-curvature="0"
       inkscape:export-filename="/home/leo/pub/paper-moho-inversion-tesseroids/figures/drawings/cv-grid-both.png"
       inkscape:export-xdpi="300.19702"
       inkscape:export-ydpi="300.19702" />
    <path
       style="fill:#ff0000;stroke:#1a1a1a;stroke-width:2;stroke-miterlimit:4;stroke-dasharray:none;display:inline"
       d="m 174.36624,83.234354 c 0,3.53675 -2.86709,6.40385 -6.40384,6.40385 -3.53676,0 -6.40385,-2.8671 -6.40385,-6.40385 0,-3.53675 2.86709,-6.40384 6.40385,-6.40384 3.53675,0 6.40384,2.86709 6.40384,6.40384 z"
       id="path3148-1"
       inkscape:connector-curvature="0"
       inkscape:export-filename="/home/leo/pub/paper-moho-inversion-tesseroids/figures/drawings/cv-grid-both.png"
       inkscape:export-xdpi="300.19702"
       inkscape:export-ydpi="300.19702" />
    <path
       style="fill:#ff0000;stroke:#1a1a1a;stroke-width:2;stroke-miterlimit:4;stroke-dasharray:none;display:inline"
       d="m 317.8124,81.386114 c 0,3.53675 -2.8671,6.40385 -6.40385,6.40385 -3.53675,0 -6.40385,-2.8671 -6.40385,-6.40385 0,-3.53675 2.8671,-6.40385 6.40385,-6.40385 3.53675,0 6.40385,2.8671 6.40385,6.40385 z"
       id="path3144-1"
       inkscape:connector-curvature="0"
       inkscape:export-filename="/home/leo/pub/paper-moho-inversion-tesseroids/figures/drawings/cv-grid-both.png"
       inkscape:export-xdpi="300.19702"
       inkscape:export-ydpi="300.19702" />
    <path
       style="fill:#ff0000;stroke:#1a1a1a;stroke-width:2;stroke-miterlimit:4;stroke-dasharray:none;display:inline"
       d="m 461.25855,83.234354 c 0,3.53675 -2.86709,6.40385 -6.40385,6.40385 -3.53675,0 -6.40384,-2.8671 -6.40384,-6.40385 0,-3.53675 2.86709,-6.40384 6.40384,-6.40384 3.53676,0 6.40385,2.86709 6.40385,6.40384 z"
       id="path3140-7"
       inkscape:connector-curvature="0"
       inkscape:export-filename="/home/leo/pub/paper-moho-inversion-tesseroids/figures/drawings/cv-grid-both.png"
       inkscape:export-xdpi="300.19702"
       inkscape:export-ydpi="300.19702" />
    <path
       style="fill:#ff0000;stroke:#1a1a1a;stroke-width:2;stroke-miterlimit:4;stroke-dasharray:none;display:inline"
       d="m 174.36624,-21.289004 c 0,3.53674 -2.86709,6.403841 -6.40384,6.403841 -3.53676,0 -6.40385,-2.867101 -6.40385,-6.403841 0,-3.536751 2.86709,-6.403852 6.40385,-6.403852 3.53675,0 6.40384,2.867101 6.40384,6.403852 z"
       id="path3128-1"
       inkscape:connector-curvature="0"
       inkscape:export-filename="/home/leo/pub/paper-moho-inversion-tesseroids/figures/drawings/cv-grid-both.png"
       inkscape:export-xdpi="300.19702"
       inkscape:export-ydpi="300.19702" />
    <path
       style="fill:#ff0000;stroke:#1a1a1a;stroke-width:2;stroke-miterlimit:4;stroke-dasharray:none;display:inline"
       d="m 317.8124,-21.289004 c 0,3.53674 -2.8671,6.403841 -6.40385,6.403841 -3.53675,0 -6.40385,-2.867101 -6.40385,-6.403841 0,-3.536751 2.8671,-6.403852 6.40385,-6.403852 3.53675,0 6.40385,2.867101 6.40385,6.403852 z"
       id="path3124-0"
       inkscape:connector-curvature="0"
       inkscape:export-filename="/home/leo/pub/paper-moho-inversion-tesseroids/figures/drawings/cv-grid-both.png"
       inkscape:export-xdpi="300.19702"
       inkscape:export-ydpi="300.19702" />
    <path
       style="fill:#ff0000;stroke:#1a1a1a;stroke-width:2;stroke-miterlimit:4;stroke-dasharray:none;display:inline"
       d="m 461.25855,-21.289004 c 0,3.53674 -2.86709,6.403841 -6.40385,6.403841 -3.53675,0 -6.40384,-2.867101 -6.40384,-6.403841 0,-3.536751 2.86709,-6.403852 6.40384,-6.403852 3.53676,0 6.40385,2.867101 6.40385,6.403852 z"
       id="path2985-4-5"
       inkscape:connector-curvature="0"
       inkscape:export-filename="/home/leo/pub/paper-moho-inversion-tesseroids/figures/drawings/cv-grid-both.png"
       inkscape:export-xdpi="300.19702"
       inkscape:export-ydpi="300.19702" />
  </g>
  <g
     inkscape:groupmode="layer"
     id="layer3"
     inkscape:label="Test"
     style="display:inline"
     transform="translate(0.99605,0.994645)">
    <path
       style="fill:#1a1a1a;stroke:#1a1a1a;stroke-width:2.0999999;stroke-miterlimit:4;stroke-dasharray:none;display:inline"
       d="m 84.53077,215.45045 c 0,3.53675 -2.86709,6.40385 -6.40385,6.40385 -3.53675,0 -6.40384,-2.8671 -6.40384,-6.40385 0,-3.53675 2.86709,-6.40384 6.40384,-6.40384 3.53676,0 6.40385,2.86709 6.40385,6.40384 z"
       id="path3166-4-8"
       inkscape:connector-curvature="0" />
    <path
       style="fill:#1a1a1a;stroke:#1a1a1a;stroke-width:2.0999999;stroke-miterlimit:4;stroke-dasharray:none;display:inline"
       d="m 227.9769,215.45045 c 0,3.53675 -2.86709,6.40385 -6.40384,6.40385 -3.53675,0 -6.40385,-2.8671 -6.40385,-6.40385 0,-3.53675 2.8671,-6.40384 6.40385,-6.40384 3.53675,0 6.40384,2.86709 6.40384,6.40384 z"
       id="path3162-3-3"
       inkscape:connector-curvature="0" />
    <path
       style="fill:#1a1a1a;stroke:#1a1a1a;stroke-width:2.0999999;stroke-miterlimit:4;stroke-dasharray:none;display:inline"
       d="m 12.80769,163.18883 c 0,3.53676 -2.86709,6.40386 -6.40384,6.40386 -3.53676,0 -6.40385,-2.8671 -6.40385,-6.40386 0,-3.53673 2.86709,-6.40385 6.40385,-6.40385 3.53675,0 6.40384,2.86712 6.40384,6.40385 z"
       id="path3158-8-6"
       inkscape:connector-curvature="0" />
    <path
       style="fill:#1a1a1a;stroke:#1a1a1a;stroke-width:2.0999999;stroke-miterlimit:4;stroke-dasharray:none;display:inline"
       d="m 84.53077,163.18883 c 0,3.53676 -2.86709,6.40386 -6.40385,6.40386 -3.53675,0 -6.40384,-2.8671 -6.40384,-6.40386 0,-3.53673 2.86709,-6.40385 6.40384,-6.40385 3.53676,0 6.40385,2.86712 6.40385,6.40385 z"
       id="path3156-4-6"
       inkscape:connector-curvature="0" />
    <path
       style="fill:#1a1a1a;stroke:#1a1a1a;stroke-width:2.0999999;stroke-miterlimit:4;stroke-dasharray:none;display:inline"
       d="m 156.25385,163.18883 c 0,3.53676 -2.8671,6.40386 -6.40385,6.40386 -3.53675,0 -6.40385,-2.8671 -6.40385,-6.40386 0,-3.53673 2.8671,-6.40385 6.40385,-6.40385 3.53675,0 6.40385,2.86712 6.40385,6.40385 z"
       id="path3154-1-1"
       inkscape:connector-curvature="0" />
    <path
       style="fill:#1a1a1a;stroke:#1a1a1a;stroke-width:2.0999999;stroke-miterlimit:4;stroke-dasharray:none;display:inline"
       d="m 227.97692,163.18883 c 0,3.53676 -2.86709,6.40386 -6.40384,6.40386 -3.53676,0 -6.40385,-2.8671 -6.40385,-6.40386 0,-3.53673 2.86709,-6.40385 6.40385,-6.40385 3.53675,0 6.40384,2.86712 6.40384,6.40385 z"
       id="path3152-5-4"
       inkscape:connector-curvature="0" />
    <path
       style="fill:#1a1a1a;stroke:#1a1a1a;stroke-width:2.0999999;stroke-miterlimit:4;stroke-dasharray:none;display:inline"
       d="m 299.7,163.18883 c 0,3.53676 -2.86709,6.40386 -6.40385,6.40386 -3.53675,0 -6.40384,-2.8671 -6.40384,-6.40386 0,-3.53673 2.86709,-6.40385 6.40384,-6.40385 3.53676,0 6.40385,2.86712 6.40385,6.40385 z"
       id="path3150-7-9"
       inkscape:connector-curvature="0" />
    <path
       style="fill:#1a1a1a;stroke:#1a1a1a;stroke-width:2.0999999;stroke-miterlimit:4;stroke-dasharray:none;display:inline"
       d="m 84.53077,110.92721 c 0,3.53675 -2.86709,6.40385 -6.40385,6.40385 -3.53675,0 -6.40384,-2.8671 -6.40384,-6.40385 0,-3.53675 2.86709,-6.40384 6.40384,-6.40384 3.53676,0 6.40385,2.86709 6.40385,6.40384 z"
       id="path3146-5-4"
       inkscape:connector-curvature="0" />
    <path
       style="fill:#1a1a1a;stroke:#1a1a1a;stroke-width:2.0999999;stroke-miterlimit:4;stroke-dasharray:none;display:inline"
       d="m 227.97692,110.92721 c 0,3.53675 -2.86709,6.40385 -6.40384,6.40385 -3.53676,0 -6.40385,-2.8671 -6.40385,-6.40385 0,-3.53675 2.86709,-6.40384 6.40385,-6.40384 3.53675,0 6.40384,2.86709 6.40384,6.40384 z"
       id="path3142-5-6"
       inkscape:connector-curvature="0" />
    <path
       style="fill:#1a1a1a;stroke:#1a1a1a;stroke-width:2.0999999;stroke-miterlimit:4;stroke-dasharray:none;display:inline"
       d="m 12.80769,58.665513 c 0,3.536753 -2.86709,6.403846 -6.40384,6.403846 C 2.86709,65.069359 0,62.202266 0,58.665513 c 0,-3.536752 2.86709,-6.403846 6.40385,-6.403846 3.53675,0 6.40384,2.867094 6.40384,6.403846 z"
       id="path3138-5-2"
       inkscape:connector-curvature="0" />
    <path
       style="fill:#1a1a1a;stroke:#1a1a1a;stroke-width:2.0999999;stroke-miterlimit:4;stroke-dasharray:none;display:inline"
       d="m 84.53077,58.665513 c 0,3.536753 -2.86709,6.403846 -6.40385,6.403846 -3.53675,0 -6.40384,-2.867093 -6.40384,-6.403846 0,-3.536752 2.86709,-6.403846 6.40384,-6.403846 3.53676,0 6.40385,2.867094 6.40385,6.403846 z"
       id="path3136-9-8"
       inkscape:connector-curvature="0" />
    <path
       style="fill:#1a1a1a;stroke:#1a1a1a;stroke-width:2.0999999;stroke-miterlimit:4;stroke-dasharray:none;display:inline"
       d="m 156.25385,58.665513 c 0,3.536753 -2.8671,6.403846 -6.40385,6.403846 -3.53675,0 -6.40385,-2.867093 -6.40385,-6.403846 0,-3.536752 2.8671,-6.403846 6.40385,-6.403846 3.53675,0 6.40385,2.867094 6.40385,6.403846 z"
       id="path3134-7-4"
       inkscape:connector-curvature="0" />
    <path
       style="fill:#1a1a1a;stroke:#1a1a1a;stroke-width:2.0999999;stroke-miterlimit:4;stroke-dasharray:none;display:inline"
       d="m 227.97692,58.665513 c 0,3.536753 -2.86709,6.403846 -6.40384,6.403846 -3.53676,0 -6.40385,-2.867093 -6.40385,-6.403846 0,-3.536752 2.86709,-6.403846 6.40385,-6.403846 3.53675,0 6.40384,2.867094 6.40384,6.403846 z"
       id="path3132-8-6"
       inkscape:connector-curvature="0" />
    <path
       style="fill:#1a1a1a;stroke:#1a1a1a;stroke-width:2.0999999;stroke-miterlimit:4;stroke-dasharray:none;display:inline"
       d="m 299.7,58.665513 c 0,3.536753 -2.86709,6.403846 -6.40385,6.403846 -3.53675,0 -6.40384,-2.867093 -6.40384,-6.403846 0,-3.536752 2.86709,-6.403846 6.40384,-6.403846 3.53676,0 6.40385,2.867094 6.40385,6.403846 z"
       id="path3130-4-3"
       inkscape:connector-curvature="0" />
    <path
       style="fill:#1a1a1a;stroke:#1a1a1a;stroke-width:2.0999999;stroke-miterlimit:4;stroke-dasharray:none;display:inline"
       d="m 84.53077,6.4038511 c 0,3.53674 -2.86709,6.4038409 -6.40385,6.4038409 -3.53675,0 -6.40384,-2.8671009 -6.40384,-6.4038409 0,-3.536751 2.86709,-6.40385201796875 6.40384,-6.40385201796875 3.53676,0 6.40385,2.86710101796875 6.40385,6.40385201796875 z"
       id="path3126-2-1"
       inkscape:connector-curvature="0" />
    <path
       style="fill:#1a1a1a;stroke:#1a1a1a;stroke-width:2.0999999;stroke-miterlimit:4;stroke-dasharray:none;display:inline"
       d="m 227.97692,6.4038511 c 0,3.53674 -2.86709,6.4038409 -6.40384,6.4038409 -3.53676,0 -6.40385,-2.8671009 -6.40385,-6.4038409 0,-3.536751 2.86709,-6.40385201796875 6.40385,-6.40385201796875 3.53675,0 6.40384,2.86710101796875 6.40384,6.40385201796875 z"
       id="path3122-8-1"
       inkscape:connector-curvature="0" />
    <path
       style="fill:#1a1a1a;stroke:#1a1a1a;stroke-width:2.0999999;stroke-miterlimit:4;stroke-dasharray:none;display:inline"
       d="m 84.53077,215.45045 c 0,3.53675 -2.86709,6.40385 -6.40385,6.40385 -3.53675,0 -6.40384,-2.8671 -6.40384,-6.40385 0,-3.53675 2.86709,-6.40384 6.40384,-6.40384 3.53676,0 6.40385,2.86709 6.40385,6.40384 z"
       id="path3166-46"
       inkscape:connector-curvature="0" />
    <path
       style="fill:#1a1a1a;stroke:#1a1a1a;stroke-width:2.0999999;stroke-miterlimit:4;stroke-dasharray:none;display:inline"
       d="m 227.9769,215.45045 c 0,3.53675 -2.86709,6.40385 -6.40384,6.40385 -3.53675,0 -6.40385,-2.8671 -6.40385,-6.40385 0,-3.53675 2.8671,-6.40384 6.40385,-6.40384 3.53675,0 6.40384,2.86709 6.40384,6.40384 z"
       id="path3162-2"
       inkscape:connector-curvature="0" />
    <path
       style="fill:#1a1a1a;stroke:#1a1a1a;stroke-width:2.0999999;stroke-miterlimit:4;stroke-dasharray:none;display:inline"
       d="m 12.80769,163.18883 c 0,3.53676 -2.86709,6.40386 -6.40384,6.40386 -3.53676,0 -6.40385,-2.8671 -6.40385,-6.40386 0,-3.53673 2.86709,-6.40385 6.40385,-6.40385 3.53675,0 6.40384,2.86712 6.40384,6.40385 z"
       id="path3158-82"
       inkscape:connector-curvature="0" />
    <path
       style="fill:#1a1a1a;stroke:#1a1a1a;stroke-width:2.0999999;stroke-miterlimit:4;stroke-dasharray:none;display:inline"
       d="m 84.53077,163.18883 c 0,3.53676 -2.86709,6.40386 -6.40385,6.40386 -3.53675,0 -6.40384,-2.8671 -6.40384,-6.40386 0,-3.53673 2.86709,-6.40385 6.40384,-6.40385 3.53676,0 6.40385,2.86712 6.40385,6.40385 z"
       id="path3156-3"
       inkscape:connector-curvature="0" />
    <path
       style="fill:#1a1a1a;stroke:#1a1a1a;stroke-width:2.0999999;stroke-miterlimit:4;stroke-dasharray:none;display:inline"
       d="m 156.25385,163.18883 c 0,3.53676 -2.8671,6.40386 -6.40385,6.40386 -3.53675,0 -6.40385,-2.8671 -6.40385,-6.40386 0,-3.53673 2.8671,-6.40385 6.40385,-6.40385 3.53675,0 6.40385,2.86712 6.40385,6.40385 z"
       id="path3154-3"
       inkscape:connector-curvature="0" />
    <path
       style="fill:#1a1a1a;stroke:#1a1a1a;stroke-width:2.0999999;stroke-miterlimit:4;stroke-dasharray:none;display:inline"
       d="m 227.97692,163.18883 c 0,3.53676 -2.86709,6.40386 -6.40384,6.40386 -3.53676,0 -6.40385,-2.8671 -6.40385,-6.40386 0,-3.53673 2.86709,-6.40385 6.40385,-6.40385 3.53675,0 6.40384,2.86712 6.40384,6.40385 z"
       id="path3152-9"
       inkscape:connector-curvature="0" />
    <path
       style="fill:#1a1a1a;stroke:#1a1a1a;stroke-width:2.0999999;stroke-miterlimit:4;stroke-dasharray:none;display:inline"
       d="m 299.7,163.18883 c 0,3.53676 -2.86709,6.40386 -6.40385,6.40386 -3.53675,0 -6.40384,-2.8671 -6.40384,-6.40386 0,-3.53673 2.86709,-6.40385 6.40384,-6.40385 3.53676,0 6.40385,2.86712 6.40385,6.40385 z"
       id="path3150-1"
       inkscape:connector-curvature="0" />
    <path
       style="fill:#1a1a1a;stroke:#1a1a1a;stroke-width:2.0999999;stroke-miterlimit:4;stroke-dasharray:none;display:inline"
       d="m 84.53077,110.92721 c 0,3.53675 -2.86709,6.40385 -6.40385,6.40385 -3.53675,0 -6.40384,-2.8671 -6.40384,-6.40385 0,-3.53675 2.86709,-6.40384 6.40384,-6.40384 3.53676,0 6.40385,2.86709 6.40385,6.40384 z"
       id="path3146-2"
       inkscape:connector-curvature="0" />
    <path
       style="fill:#1a1a1a;stroke:#1a1a1a;stroke-width:2.0999999;stroke-miterlimit:4;stroke-dasharray:none;display:inline"
       d="m 227.97692,110.92721 c 0,3.53675 -2.86709,6.40385 -6.40384,6.40385 -3.53676,0 -6.40385,-2.8671 -6.40385,-6.40385 0,-3.53675 2.86709,-6.40384 6.40385,-6.40384 3.53675,0 6.40384,2.86709 6.40384,6.40384 z"
       id="path3142-3"
       inkscape:connector-curvature="0" />
    <path
       style="fill:#1a1a1a;stroke:#1a1a1a;stroke-width:2.0999999;stroke-miterlimit:4;stroke-dasharray:none;display:inline"
       d="m 12.80769,58.665513 c 0,3.536753 -2.86709,6.403846 -6.40384,6.403846 C 2.86709,65.069359 0,62.202266 0,58.665513 c 0,-3.536752 2.86709,-6.403846 6.40385,-6.403846 3.53675,0 6.40384,2.867094 6.40384,6.403846 z"
       id="path3138-9"
       inkscape:connector-curvature="0" />
    <path
       style="fill:#1a1a1a;stroke:#1a1a1a;stroke-width:2.0999999;stroke-miterlimit:4;stroke-dasharray:none;display:inline"
       d="m 84.53077,58.665513 c 0,3.536753 -2.86709,6.403846 -6.40385,6.403846 -3.53675,0 -6.40384,-2.867093 -6.40384,-6.403846 0,-3.536752 2.86709,-6.403846 6.40384,-6.403846 3.53676,0 6.40385,2.867094 6.40385,6.403846 z"
       id="path3136-3"
       inkscape:connector-curvature="0" />
    <path
       style="fill:#1a1a1a;stroke:#1a1a1a;stroke-width:2.0999999;stroke-miterlimit:4;stroke-dasharray:none;display:inline"
       d="m 156.25385,58.665513 c 0,3.536753 -2.8671,6.403846 -6.40385,6.403846 -3.53675,0 -6.40385,-2.867093 -6.40385,-6.403846 0,-3.536752 2.8671,-6.403846 6.40385,-6.403846 3.53675,0 6.40385,2.867094 6.40385,6.403846 z"
       id="path3134-2"
       inkscape:connector-curvature="0" />
    <path
       style="fill:#1a1a1a;stroke:#1a1a1a;stroke-width:2.0999999;stroke-miterlimit:4;stroke-dasharray:none;display:inline"
       d="m 227.97692,58.665513 c 0,3.536753 -2.86709,6.403846 -6.40384,6.403846 -3.53676,0 -6.40385,-2.867093 -6.40385,-6.403846 0,-3.536752 2.86709,-6.403846 6.40385,-6.403846 3.53675,0 6.40384,2.867094 6.40384,6.403846 z"
       id="path3132-3"
       inkscape:connector-curvature="0" />
    <path
       style="fill:#1a1a1a;stroke:#1a1a1a;stroke-width:2.0999999;stroke-miterlimit:4;stroke-dasharray:none;display:inline"
       d="m 299.7,58.665513 c 0,3.536753 -2.86709,6.403846 -6.40385,6.403846 -3.53675,0 -6.40384,-2.867093 -6.40384,-6.403846 0,-3.536752 2.86709,-6.403846 6.40384,-6.403846 3.53676,0 6.40385,2.867094 6.40385,6.403846 z"
       id="path3130-1"
       inkscape:connector-curvature="0" />
    <path
       style="fill:#1a1a1a;stroke:#1a1a1a;stroke-width:2.0999999;stroke-miterlimit:4;stroke-dasharray:none;display:inline"
       d="m 84.53077,6.4038512 c 0,3.53674 -2.86709,6.4038408 -6.40385,6.4038408 -3.53675,0 -6.40384,-2.8671008 -6.40384,-6.4038408 0,-3.536751 2.86709,-6.40385203593761 6.40384,-6.40385203593761 3.53676,0 6.40385,2.86710103593761 6.40385,6.40385203593761 z"
       id="path3126-9"
       inkscape:connector-curvature="0" />
    <path
       style="fill:#1a1a1a;stroke:#1a1a1a;stroke-width:2.0999999;stroke-miterlimit:4;stroke-dasharray:none;display:inline"
       d="m 227.97692,6.4038512 c 0,3.53674 -2.86709,6.4038408 -6.40384,6.4038408 -3.53676,0 -6.40385,-2.8671008 -6.40385,-6.4038408 0,-3.536751 2.86709,-6.40385203593761 6.40385,-6.40385203593761 3.53675,0 6.40384,2.86710103593761 6.40384,6.40385203593761 z"
       id="path3122-2"
       inkscape:connector-curvature="0" />
  </g>
</svg>
